# Blender v3.0.0 OBJ File: 'rock.blend'
# www.blender.org
mtllib rock.mtl
o Icosphere_Icosphere.001
v 0.000000 -1.152535 0.000000
v -0.276385 -0.608000 0.850640
v -0.976698 -0.608000 0.068278
v -0.353133 -0.608000 -0.850640
v 0.892855 -0.608000 -0.525720
v 0.276385 0.608000 0.850640
v -0.723600 0.608000 -0.525720
v 0.894425 0.608000 0.000000
v -0.776916 0.228472 0.361637
v -0.584020 0.228474 0.627131
v -0.411490 0.608000 0.627132
v -0.497754 0.842561 0.361635
v -0.723600 0.608000 0.197547
v 0.232874 1.091969 0.268616
v 0.463597 1.055071 0.000000
v 0.232874 1.091969 -0.268616
v -0.034801 1.128304 -0.139007
v -0.044950 1.143839 0.131179
v 0.457956 0.114299 -0.718721
v 0.051956 0.114295 -0.850640
v -0.129620 0.608000 -0.718719
v 0.249214 0.910213 -0.487197
v 0.527314 0.608000 -0.505274
v 0.774067 -0.608000 0.212208
v 0.775190 -0.240760 0.366949
v 0.588539 -0.240762 0.623847
v 0.421594 -0.608000 0.623849
v 0.489134 -0.784444 0.355372
vt 0.326941 0.157461
vt 0.363637 0.314921
vt 0.300183 0.205015
vt 0.181819 0.000000
vt 0.217817 0.157461
vt 0.090910 0.157461
vt 0.909091 0.000000
vt 1.000000 0.157461
vt 0.818182 0.157461
vt 0.727273 0.000000
vt 0.636364 0.157461
vt 0.545455 0.000000
vt 0.454546 0.157461
vt 0.245273 0.205015
vt 0.181819 0.314921
vt 0.028374 0.265776
vt 0.727273 0.314921
vt 0.619275 0.314921
vt 0.582365 0.250991
vt 0.660401 0.430747
vt 0.471636 0.314921
vt 0.483253 0.422659
vt 0.421096 0.414445
vt 0.508546 0.250992
vt 0.937465 0.265776
vt 0.880717 0.265776
vt 0.056748 0.314921
vt 0.119617 0.422659
vt 0.068226 0.433092
vt 0.880717 0.364067
vt 0.840866 0.433092
vt 0.794145 0.430747
vt 0.028374 0.364067
vt 0.852342 0.314921
vt 0.306178 0.414445
vt 0.244021 0.422659
vt 0.584297 0.382197
vt 0.243271 0.106439
vt 0.363637 0.000000
vt 0.607657 0.422659
vt 0.506613 0.382197
vt 0.302185 0.106439
vn 0.9849 -0.0698 0.1585
vn 0.1858 -0.7990 0.5719
vn -0.4290 -0.8176 0.3840
vn -0.4778 -0.8164 -0.3243
vn 0.1503 -0.8031 -0.5765
vn 0.8011 0.1391 0.5821
vn -0.3060 0.1391 0.9418
vn -0.8232 -0.1015 -0.5586
vn -0.2733 0.1533 -0.9497
vn 0.3060 -0.1391 0.9418
vn -0.2062 0.7447 -0.6347
vn 0.6380 0.6148 -0.4636
vn 0.2509 -0.1060 -0.9622
vn -0.8089 -0.0129 0.5877
vn -0.1867 0.7331 0.6540
vn -0.5766 0.8142 -0.0685
vn -0.7593 0.3452 0.5517
vn -0.9748 0.2203 0.0357
vn 0.1414 0.9898 0.0145
vn 0.6380 0.6148 0.4636
vn 0.2925 0.3230 -0.9001
vn 0.7843 0.2453 -0.5698
vn 0.8139 -0.3700 0.4479
vn 0.5565 -0.8260 0.0896
vn -0.3051 0.1580 -0.9391
vn 0.3045 -0.1708 -0.9371
vn -0.7417 -0.0954 0.6639
vn -0.1334 0.7208 0.6802
vn -0.2062 0.7447 0.6347
vn -0.6027 0.7979 0.0000
vn -0.6461 0.7433 -0.1732
vn -0.9903 0.1391 0.0000
vn 0.2064 0.9773 -0.0484
vn 0.1478 0.9890 -0.0089
vn 0.2900 0.3452 -0.8926
vn 0.6699 0.2133 -0.7111
vn 0.5758 -0.3190 0.7528
vn 0.7410 -0.4013 0.5384
usemtl Material.002
s off
f 24/1/1 8/2/1 25/3/1
f 1/4/2 27/5/2 2/6/2
f 1/7/3 2/8/3 3/9/3
f 1/10/4 3/9/4 4/11/4
f 1/12/5 4/11/5 5/13/5
f 26/14/6 8/2/6 6/15/6
f 6/15/7 10/16/7 2/6/7
f 4/11/8 3/9/8 7/17/8
f 4/11/9 21/18/9 20/19/9
f 2/6/10 26/14/10 6/15/10
f 21/18/11 7/17/11 17/20/11
f 23/21/12 16/22/12 15/23/12
f 4/11/13 19/24/13 5/13/13
f 3/9/14 10/25/14 9/26/14
f 11/27/15 14/28/15 18/29/15
f 12/30/16 18/31/16 17/32/16
f 10/25/17 12/33/17 13/34/17
f 9/26/18 7/17/18 3/9/18
f 15/35/19 16/22/19 17/20/19
f 8/2/20 14/36/20 6/15/20
f 21/18/21 22/37/21 23/21/21
f 5/13/22 23/21/22 8/2/22
f 26/14/23 27/5/23 28/38/23
f 24/1/24 1/39/24 5/13/24
f 24/1/1 5/13/1 8/2/1
f 1/4/2 28/38/2 27/5/2
f 26/14/6 25/3/6 8/2/6
f 6/15/7 11/27/7 10/16/7
f 4/11/25 7/17/25 21/18/25
f 2/6/10 27/5/10 26/14/10
f 16/40/11 22/37/11 17/20/11
f 22/37/11 21/18/11 17/20/11
f 15/23/12 8/2/12 23/21/12
f 23/21/12 22/41/12 16/22/12
f 4/11/26 20/19/26 19/24/26
f 3/9/27 2/8/27 10/25/27
f 18/29/28 12/33/28 11/27/28
f 11/27/29 6/15/29 14/28/29
f 17/32/30 7/17/30 13/34/30
f 13/34/31 12/30/31 17/32/31
f 13/34/17 9/26/17 10/25/17
f 10/25/17 11/27/17 12/33/17
f 9/26/32 13/34/32 7/17/32
f 18/31/33 14/28/33 17/20/33
f 14/28/34 15/35/34 17/20/34
f 8/2/20 15/35/20 14/36/20
f 23/21/35 19/24/35 20/19/35
f 20/19/35 21/18/35 23/21/35
f 5/13/36 19/24/36 23/21/36
f 28/38/37 24/1/37 25/3/37
f 25/3/38 26/14/38 28/38/38
f 24/1/24 28/42/24 1/39/24
