# Blender v3.0.0 OBJ File: 'rock.blend'
# www.blender.org
mtllib field.mtl
o Cube
v -1.000100 1.600500 1.000100
v -1.000100 2.000500 1.000100
v -1.000100 1.600500 -1.000100
v -1.000100 2.000500 -1.000100
v 1.000100 1.600500 1.000100
v 1.000100 2.000500 1.000100
v 1.000100 1.600500 -1.000100
v 1.000100 2.000500 -1.000100
vt 0.295000 0.174000
vt 0.003000 0.998000
vt 0.003000 0.176000
vt 0.287000 0.184000
vt 0.001000 0.996000
vt 0.001000 0.184000
vt 0.277000 0.158000
vt -0.003000 0.998000
vt -0.001000 0.158000
vt 0.327000 0.248000
vt -0.001000 0.998000
vt -0.003000 0.248000
vt 0.375000 0.500000
vt 0.125000 0.750000
vt 0.125000 0.500000
vt 1.001000 0.002000
vt 0.001000 0.998000
vt -0.001000 0.002000
vt 0.293000 0.998000
vt 0.285000 0.996000
vt 0.277000 0.998000
vt 0.325000 1.000000
vt 0.375000 0.750000
vt 1.003000 0.998000
vn -1.0000 0.0000 0.0000
vn 0.0000 0.0000 -1.0000
vn 1.0000 0.0000 0.0000
vn 0.0000 0.0000 1.0000
vn 0.0000 -1.0000 0.0000
vn 0.0000 1.0000 0.0000
usemtl Material
s off
f 2/1/1 3/2/1 1/3/1
f 4/4/2 7/5/2 3/6/2
f 8/7/3 5/8/3 7/9/3
f 6/10/4 1/11/4 5/12/4
f 7/13/5 1/14/5 3/15/5
f 4/16/6 6/17/6 8/18/6
f 2/1/1 4/19/1 3/2/1
f 4/4/2 8/20/2 7/5/2
f 8/7/3 6/21/3 5/8/3
f 6/10/4 2/22/4 1/11/4
f 7/13/5 5/23/5 1/14/5
f 4/16/6 2/24/6 6/17/6
o Plane01_Plane
v 1.000000 1.999068 -1.000931
v 1.000000 2.000931 0.999068
v 1.000000 -0.000931 -0.999068
v 1.000000 0.000932 1.000931
vt 1.000000 0.000000
vt 0.000000 1.000000
vt 0.000000 0.000000
vt 1.000000 1.000000
vn 1.0000 0.0000 0.0000
usemtl Material.002
s off
f 10/25/7 11/26/7 9/27/7
f 10/25/7 12/28/7 11/26/7
o Plane02_Plane.001
v -1.000000 1.999068 1.000931
v -1.000000 2.000931 -0.999068
v -1.000000 -0.000931 0.999068
v -1.000000 0.000932 -1.000931
vt 1.000000 0.000000
vt 0.000000 1.000000
vt 0.000000 0.000000
vt 1.000000 1.000000
vn -1.0000 0.0000 -0.0000
usemtl Material.002
s off
f 14/29/8 15/30/8 13/31/8
f 14/29/8 16/32/8 15/30/8
o Plane03_Plane.003
v -1.000932 1.999068 -1.000000
v 0.999068 2.000932 -1.000000
v -0.999068 -0.000932 -1.000000
v 1.000932 0.000932 -1.000000
vt 1.000000 0.000000
vt 0.000000 1.000000
vt 0.000000 0.000000
vt 1.000000 1.000000
vn -0.0000 0.0000 -1.0000
usemtl Material.002
s off
f 18/33/9 19/34/9 17/35/9
f 18/33/9 20/36/9 19/34/9
o Plane04_Plane.002
v 1.000932 1.999068 1.000000
v -0.999068 2.000932 1.000000
v 0.999068 -0.000932 1.000000
v -1.000932 0.000932 1.000000
vt 1.000000 0.000000
vt 0.000000 1.000000
vt 0.000000 0.000000
vt 1.000000 1.000000
vn 0.0000 0.0000 1.0000
usemtl Material.002
s off
f 22/37/10 23/38/10 21/39/10
f 22/37/10 24/40/10 23/38/10
o Plane_Plane.004
v 0.999976 0.006981 1.000000
v -0.999976 -0.006981 1.000000
v 0.999976 0.006981 -1.000000
v -0.999976 -0.006981 -1.000000
vt 1.000000 0.000000
vt 0.000000 1.000000
vt 0.000000 0.000000
vt 1.000000 1.000000
vn 0.0070 -1.0000 0.0000
usemtl Material.002
s off
f 26/41/11 27/42/11 25/43/11
f 26/41/11 28/44/11 27/42/11
